<?xml version="1.0" standalone="no"?>
<!DOCTYPE svg PUBLIC "-//W3C//DTD SVG 20010904//EN"
 "http://www.w3.org/TR/2001/REC-SVG-20010904/DTD/svg10.dtd">
<svg version="1.0" xmlns="http://www.w3.org/2000/svg"
 width="400.000000pt" height="400.000000pt" viewBox="0 0 400.000000 400.000000"
 preserveAspectRatio="xMidYMid meet">
<metadata>
Created by potrace 1.11, written by Peter Selinger 2001-2013
</metadata>
<g transform="translate(0.000000,400.000000) scale(0.100000,-0.100000)"
fill="#000000" stroke="none">
<path d="M1660 3170 c107 -54 201 -99 208 -99 9 -1 12 25 12 99 l0 100 -207
-1 -208 0 195 -99z"/>
<path d="M1930 3130 l0 -140 -260 0 -260 0 0 -70 0 -70 260 0 260 0 0 -140 0
-140 70 0 69 0 3 138 3 137 263 3 262 2 0 70 0 70 -262 2 -263 3 -3 138 -3
137 -69 0 -70 0 0 -140z"/>
<path d="M2120 3170 c0 -74 3 -100 13 -99 6 0 100 45 207 99 l195 99 -207 0
-208 1 0 -100z"/>
<path d="M2371 3157 c-222 -111 -223 -112 -178 -115 40 -3 66 7 226 88 162 81
181 93 181 115 0 14 -1 25 -2 24 -2 0 -104 -51 -227 -112z"/>
<path d="M1410 3185 c0 -22 15 -32 121 -85 104 -53 127 -61 167 -58 l47 3
-163 83 c-89 45 -164 82 -167 82 -3 0 -5 -11 -5 -25z"/>
<path d="M1410 3085 l0 -45 87 0 c47 0 84 3 81 6 -7 6 -158 84 -164 84 -2 0
-4 -20 -4 -45z"/>
<path d="M2500 3085 l-85 -44 93 0 92 -1 0 45 c0 25 -3 45 -7 44 -5 0 -46 -20
-93 -44z"/>
<path d="M1410 2755 c0 -25 2 -45 5 -45 6 0 158 79 164 86 2 2 -35 4 -82 4
l-87 0 0 -45z"/>
<path d="M1589 2713 c-140 -71 -175 -92 -177 -110 -2 -13 0 -23 5 -23 15 0
423 204 423 212 0 4 -17 8 -38 8 -29 0 -84 -23 -213 -87z"/>
<path d="M2276 2791 c11 -12 305 -161 317 -161 4 0 7 10 7 23 0 20 -19 32
-127 85 -92 45 -139 62 -167 62 -25 0 -36 -4 -30 -9z"/>
<path d="M2500 2755 c47 -24 88 -44 93 -44 4 -1 7 19 7 44 l0 45 -92 -1 -93 0
85 -44z"/>
<path d="M1673 2677 c-100 -51 -185 -95 -189 -99 -4 -5 83 -8 194 -8 l202 0 0
100 c0 74 -3 100 -12 99 -7 0 -95 -42 -195 -92z"/>
<path d="M2120 2675 c0 -69 4 -97 13 -101 7 -2 98 -3 202 -2 l190 3 -192 98
c-106 53 -197 97 -203 97 -6 0 -10 -38 -10 -95z"/>
<path d="M90 2180 l0 -280 1905 0 1905 0 0 280 0 280 -1905 0 -1905 0 0 -280z
m3750 -5 l0 -225 -1845 0 -1845 0 0 225 0 225 1845 0 1845 0 0 -225z"/>
<path d="M180 2170 c0 -188 0 -190 23 -195 12 -3 94 -4 182 -3 l160 3 3 193 2
192 -185 0 -185 0 0 -190z"/>
<path d="M600 2165 l0 -195 180 0 180 0 0 195 0 195 -180 0 -180 0 0 -195z"/>
<path d="M1000 2178 c0 -101 4 -189 8 -196 7 -9 49 -12 178 -10 l169 3 3 193
2 192 -180 0 -180 0 0 -182z"/>
<path d="M1400 2179 c0 -161 2 -183 18 -195 12 -10 59 -13 172 -14 85 0 165 3
178 6 22 6 22 8 22 195 l0 189 -195 0 -195 0 0 -181z"/>
<path d="M1822 2168 l3 -193 174 -3 c133 -2 176 1 183 10 4 7 8 95 8 196 l0
182 -185 0 -185 0 2 -192z"/>
<path d="M1131 1822 c-14 -26 4 -42 46 -42 33 0 33 0 33 -49 l0 -48 -58 -12
c-33 -6 -85 -27 -117 -46 l-58 -36 -33 32 -33 32 24 29 c26 31 24 58 -5 58
-24 0 -152 -130 -148 -150 5 -24 38 -24 64 1 l24 23 30 -29 c17 -16 30 -33 30
-38 0 -6 -13 -31 -29 -56 -27 -42 -41 -80 -56 -154 -5 -27 -8 -28 -53 -25 -47
3 -47 3 -52 43 -4 32 -9 40 -25 40 -19 0 -20 -7 -20 -110 0 -103 1 -110 20
-110 16 0 21 8 25 40 5 40 5 40 52 43 45 3 48 2 53 -25 15 -71 29 -109 57
-155 l31 -49 -34 -35 -33 -34 -21 20 c-26 24 -53 26 -62 4 -4 -11 16 -38 63
-85 71 -71 84 -78 103 -55 8 10 6 19 -9 39 -26 33 -26 38 10 72 26 25 34 27
48 17 41 -28 111 -60 160 -72 l52 -12 0 -49 0 -49 -40 0 c-36 0 -40 -3 -40
-24 0 -22 4 -24 58 -28 31 -1 80 -1 107 2 42 4 50 8 50 25 0 16 -8 21 -37 23
l-38 3 0 49 c0 46 2 50 28 56 62 14 120 36 154 59 20 14 41 25 46 25 4 0 21
-13 37 -30 l29 -30 -23 -24 c-26 -28 -25 -59 3 -64 26 -5 146 114 146 145 0
30 -35 31 -65 3 l-21 -20 -32 33 -33 34 36 58 c19 32 40 85 47 117 l12 58 48
0 c48 0 48 0 48 -34 0 -41 23 -65 45 -46 11 10 15 36 15 111 0 90 -2 98 -21
104 -27 9 -37 -2 -41 -45 -3 -34 -4 -35 -49 -38 l-47 -3 -6 43 c-7 48 -48 143
-74 171 -15 17 -13 20 21 54 l36 37 24 -22 c31 -29 57 -29 57 1 0 27 -117 147
-143 147 -29 0 -32 -29 -6 -56 l23 -25 -36 -36 -37 -36 -33 25 c-38 28 -96 52
-150 62 -38 7 -38 7 -38 56 l0 49 37 3 c28 2 39 8 41 22 6 29 -16 36 -115 36
-80 0 -94 -3 -102 -18z m244 -231 c63 -28 129 -91 163 -156 37 -72 42 -188 12
-267 -28 -74 -93 -146 -167 -183 -51 -26 -69 -30 -143 -30 -76 0 -93 3 -152
33 -118 58 -182 161 -183 298 0 73 3 87 35 149 41 81 106 139 182 167 71 25
183 20 253 -11z"/>
<path d="M1064 1491 c-60 -26 -83 -114 -44 -164 24 -31 78 -50 114 -41 73 18
102 125 48 178 -31 29 -84 41 -118 27z m74 -63 c19 -19 15 -66 -7 -78 -11 -5
-24 -10 -30 -10 -16 0 -41 30 -41 50 0 39 52 64 78 38z"/>
<path d="M1301 1264 c-61 -51 -48 -150 24 -180 61 -25 123 5 145 72 32 95 -91
174 -169 108z m103 -53 c21 -23 14 -56 -15 -72 -43 -23 -92 44 -57 79 18 18
53 14 72 -7z"/>
<path d="M2983 1803 c-23 -9 -13 -37 27 -78 l40 -41 -35 -34 -35 -34 -68 67
c-37 37 -75 67 -85 67 -29 0 -32 -29 -6 -56 l23 -25 -227 -227 -227 -227 0
-95 0 -95 -120 -120 c-116 -116 -137 -149 -104 -162 11 -4 53 32 143 121 l127
127 93 -2 93 -2 227 227 c225 225 227 227 246 206 22 -24 50 -26 59 -4 4 11
-16 39 -64 88 l-70 72 35 34 34 33 45 -41 c45 -42 76 -47 76 -13 0 14 -198
222 -210 220 -3 0 -11 -3 -17 -6z m5 -370 l-47 -46 -44 46 c-47 51 -58 55 -77
32 -10 -12 -6 -22 19 -53 16 -22 37 -45 46 -52 14 -12 13 -16 -11 -42 -15 -15
-32 -28 -38 -28 -6 0 -32 21 -58 47 -40 39 -49 44 -63 33 -23 -19 -19 -30 32
-82 l47 -48 -36 -37 -37 -37 -51 48 c-42 39 -54 45 -65 36 -23 -19 -18 -33 25
-75 22 -21 40 -44 40 -49 0 -6 -17 -27 -37 -48 -36 -37 -39 -38 -109 -38 l-72
0 -4 73 -4 72 220 223 221 222 75 -75 75 -75 -47 -47z"/>
</g>
</svg>
